<svg xmlns="http://www.w3.org/2000/svg" viewBox="0 0 961.58 373.98"><title>youtube-48</title><path d="M978.8,589.87A95.12,95.12,0,0,1,883.68,685H507.28a95.11,95.11,0,0,1-95.11-95.11V406.11A95.11,95.11,0,0,1,507.28,311h376.4a95.12,95.12,0,0,1,95.11,95.11V589.87Z" transform="translate(-17.22 -311)" fill="#ec2027"/><path d="M506.68,609.28V410.72H467.4V371.44H580v39.28H540.72V609.28ZM686.43,430.67V609.28h-31.2V591.53Q645.36,614,626.35,614q-30.66,0-30.66-43.07V430.67h30.72v116.7q0,14.37,1.65,20.54,3,10.65,11.82,10.66,9.58,0,12.78-11.58c1.17-4.44,1.77-11.83,1.77-22.23V430.67Zm27.44,178.61V371.44h31.82v74.34q8-19.87,27-19.87,24.26,0,31.74,34.57,3.84,17.44,3.82,60.34,0,41.65-4.16,59.57Q796.25,614,772,614q-20.21,0-27.91-23.43v18.67l-30.24,0Zm47.51-148.67q-13.05,0-16,27.48-.6,5.57-.59,39.37,0,26.09,1.07,32.57,3.1,19.9,15.56,19.92,11.63,0,14.11-24.4c.4-3.4.6-15.06.6-35q0-31-.48-35.35Q773.1,460.61,761.38,460.61ZM892.68,548h29.91c0,.83,0,2,.12,3.47s.13,2.66.13,3.48q0,30.87-11.4,45T876.05,614q-24.82,0-35.75-17.13-8.67-13.59-11.06-39.65-1.07-11.43-1.07-43.07,0-25.47,1.07-36.26,2.14-21.92,9.39-33.32,11.89-18.68,38.25-18.68,25.41,0,37.15,20.2,9.51,16.35,9.5,66v13.56H861.06q-.34,3-.35,11.43,0,19.93,1.66,28.43Q865.82,583,876.62,583q16.07,0,16.06-35ZM860.8,497.33h30.81v-7.55q0-15.4-2.15-21.87-3.32-10.32-13.41-10.32-8.43,0-12,7.08-4.26,8.79-3.56,25.11l.17,2.47C860.75,494,860.8,495.69,860.8,497.33Z" transform="translate(-17.22 -311)" fill="#fff"/><path d="M65.47,610.62V509.22L17.22,371.44h38l27.83,90,27.47-90h36.9L100,509.21V610.62Zm93.76-89.72q0-46.41,7-65.82,10.5-28.86,41.54-28.87t41.66,28.87q7,19.25,7,65.82t-7,65.8q-10.6,28.71-41.66,28.71t-41.54-28.87q-7.05-19.23-7-65.64Zm32.8,2.32q0,33.36.36,36.3,2.49,24,15.19,24t15.54-20.63q.6-4.5.59-33.66V511.75q0-27.31-.7-32.89-3-20.48-15.2-20.47-11.87,0-14.84,18-.94,5.73-.94,30.24v16.59ZM371.22,431V610.62H339.85V592.77q-9.93,22.65-29,22.63Q280,615.4,280,572.1V431h30.89V548.37q0,14.46,1.66,20.64,3,10.72,11.89,10.73,9.63,0,12.85-11.64c1.17-4.46,1.78-11.9,1.78-22.35V431Z" transform="translate(-17.22 -311)"/></svg>